<svg width="87" height="78" viewBox="0 0 87 78" fill="none" xmlns="http://www.w3.org/2000/svg">
<path d="M0 0H87V78H0V0Z" fill="#1F2A37"/>
<path d="M28.44 25.12V36.6C28.44 37.0267 28.5333 37.3333 28.72 37.52C28.9333 37.7067 29.3867 37.8 30.08 37.8H33.04V41.6H27.96C26.44 41.6 25.2133 41.44 24.28 41.12C23.3733 40.8 22.6933 40.24 22.24 39.44C21.8133 38.6133 21.5333 37.7333 21.4 36.8C21.2933 35.8667 21.24 34.6133 21.24 33.04C21.24 31.44 21.2933 30.2267 21.4 29.4C21.5333 28.5733 21.8133 27.8 22.24 27.08C22.6933 26.36 23.3733 25.8533 24.28 25.56C25.2133 25.2667 26.44 25.12 27.96 25.12H28.44ZM34.64 37.8H35.12C36.2667 37.8 37.1467 37.8267 37.76 37.88C38.4 37.9067 39.0133 38.0267 39.6 38.24C40.1867 38.4267 40.5867 38.6533 40.8 38.92C41.04 39.1867 41.2533 39.6533 41.44 40.32C41.6533 40.96 41.7733 41.6533 41.8 42.4C41.8267 43.1467 41.84 44.2133 41.84 45.6C41.84 46.9867 41.8267 48.0933 41.8 48.92C41.7733 49.72 41.6533 50.4933 41.44 51.24C41.2533 51.96 41.04 52.4667 40.8 52.76C40.5867 53.0533 40.1867 53.32 39.6 53.56C39.0133 53.7733 38.4 53.9067 37.76 53.96C37.1467 53.9867 36.2667 54 35.12 54H34.64V37.8ZM21.8 45.08H26.84C27.2133 45.08 27.44 45.1333 27.52 45.24C27.6 45.3467 27.64 45.5733 27.64 45.92V49.04C27.64 49.4667 27.6933 49.7733 27.8 49.96C27.9333 50.12 28.24 50.2 28.72 50.2H33.04V54H27.16C25.2133 54 23.7333 53.6667 22.72 53C21.7333 52.3333 21.24 51.1733 21.24 49.52V45.92C21.24 45.36 21.4267 45.08 21.8 45.08ZM30.04 25.08H35.12C37.0667 25.08 38.5333 25.4133 39.52 26.08C40.5333 26.7467 41.04 27.9067 41.04 29.56V33.16C41.04 33.72 40.8533 34 40.48 34H35.44C35.0667 34 34.84 33.9467 34.76 33.84C34.68 33.7333 34.64 33.5067 34.64 33.16V30.04C34.64 29.6133 34.5733 29.32 34.44 29.16C34.3333 28.9733 34.04 28.88 33.56 28.88H30.04V25.08ZM59.3609 45.28H64.9609C65.2543 45.28 65.4009 45.4667 65.4009 45.84V52.88C65.4009 53.6267 65.0276 54 64.2809 54H54.6009V50.2H58.3209C58.7476 50.2 58.9609 50.16 58.9609 50.08C58.9876 49.9733 59.0009 49.8533 59.0009 49.72V45.72C59.0009 45.5067 59.0276 45.3867 59.0809 45.36C59.1343 45.3067 59.2276 45.28 59.3609 45.28ZM53.2009 54H49.0009C48.0943 54 47.4943 53.8533 47.2009 53.56C46.9343 53.2667 46.8009 52.6533 46.8009 51.72V27.36C46.8009 26.4267 46.9343 25.8133 47.2009 25.52C47.4943 25.2267 48.0943 25.08 49.0009 25.08H53.2009V54Z" fill="#F3F4F6"/>
</svg>
